# xmcd CD database file
#
# Track frame offsets:
#	150
#	16766
#	30486
#	48659
#	69826
#	86285
#	106080
#	133206
#	154062
#	179017
#	195248
#	217563
#	236894
#
# Disc length: 3476 seconds
#
# Revision: 0
# Processed by: cddbd v1.5.2PL0 Copyright (c) Steve Scherf et al.
# Submitted via: CDex 1.70beta2
#
DISCID=9d0d920d
DTITLE=Roundhouse - Kickin' the Dirt
DYEAR=2007
DGENRE=Blues
TTITLE0=Got Love
TTITLE1=Kickin' The Dirt
TTITLE2=Walkin' at Seapoint
TTITLE3=Ain't Your Sugar
TTITLE4=Mack's Resurrection
TTITLE5=Long Empty Road
TTITLE6=Hills of Arkansas
TTITLE7=Midnight Mood
TTITLE8=I Gotcha Numba
TTITLE9=Midnight Train
TTITLE10=Lose the Devil
TTITLE11=Man In the Doorway
TTITLE12=Fever
EXTD=YEAR: 2007
EXTT0=
EXTT1=
EXTT2=
EXTT3=
EXTT4=
EXTT5=
EXTT6=
EXTT7=
EXTT8=
EXTT9=
EXTT10=
EXTT11=
EXTT12=
PLAYORDER=
